<svg width="100%" height="100%" preserveAspectRatio="xMidYMid meet" viewBox="0 0 320 360" fill="none" xmlns="http://www.w3.org/2000/svg">
<rect x="-33.0322" y="217.712" width="113.715" height="122.234" fill="url(#paint0_linear_4187_124098)"/>
<rect x="227.605" y="217.712" width="113.548" height="102.08" fill="url(#paint1_linear_4187_124098)"/>
<rect x="-22.165" y="73.3406" width="113.715" height="122.234" fill="#18181B"/>
<rect x="110.497" width="99.0129" height="122.234" fill="url(#paint2_linear_4187_124098)"/>
<rect x="110.546" y="265.014" width="99.0129" height="65.4456" fill="url(#paint3_linear_4187_124098)"/>
<rect x="227.605" y="73.3406" width="113.548" height="122.234" fill="#18181B"/>
<g filter="url(#filter0_dd_4187_124098)">
<rect width="81" height="84" rx="8" transform="matrix(-1 0 0 1 273 153.602)" fill="url(#paint4_linear_4187_124098)"/>
</g>
<g filter="url(#filter1_dd_4187_124098)">
<rect x="47" y="153.602" width="81" height="84" rx="8" fill="url(#paint5_linear_4187_124098)"/>
</g>
<path d="M21.5713 121.191H18.9941L18.9941 119.612H21.4824C22.1934 119.612 22.7858 119.482 23.2598 119.222C23.7383 118.958 24.0983 118.566 24.3398 118.046C24.5814 117.522 24.7021 116.868 24.7021 116.084C24.7021 115.31 24.5814 114.663 24.3398 114.143C24.0983 113.624 23.7428 113.234 23.2734 112.974C22.8086 112.714 22.2275 112.584 21.5303 112.584H18.9395L18.9395 111.005H21.6396C22.6514 111.005 23.5195 111.208 24.2441 111.614C24.9687 112.019 25.5247 112.603 25.9121 113.364C26.304 114.125 26.5 115.032 26.5 116.084C26.5 117.146 26.304 118.06 25.9121 118.826C25.5247 119.587 24.9619 120.172 24.2236 120.583C23.4899 120.988 22.6058 121.191 21.5713 121.191ZM19.9512 111.005L19.9512 121.191H18.126L18.126 111.005H19.9512ZM31.5381 121.348C30.7679 121.348 30.1048 121.186 29.5488 120.863C28.9974 120.539 28.5713 120.083 28.2705 119.496C27.9743 118.908 27.8262 118.215 27.8262 117.417C27.8262 116.629 27.972 115.939 28.2637 115.346C28.5599 114.754 28.9769 114.291 29.5146 113.958C30.057 113.621 30.6927 113.453 31.4219 113.453C31.8867 113.453 32.3288 113.528 32.748 113.678C33.1719 113.829 33.5456 114.061 33.8691 114.375C34.1973 114.69 34.4525 115.091 34.6348 115.579C34.8216 116.062 34.915 116.638 34.915 117.308L34.915 117.869H28.667L28.667 116.659H34.0332L33.1992 117.014C33.1992 116.586 33.1331 116.21 33.001 115.886C32.8688 115.558 32.6706 115.303 32.4062 115.121C32.1465 114.938 31.8206 114.847 31.4287 114.847C31.0368 114.847 30.7041 114.941 30.4307 115.127C30.1572 115.31 29.9476 115.556 29.8018 115.866C29.6605 116.171 29.5898 116.513 29.5898 116.891L29.5898 117.725C29.5898 118.208 29.6719 118.616 29.8359 118.949C30 119.281 30.2301 119.532 30.5264 119.701C30.8226 119.869 31.1667 119.954 31.5586 119.954C31.8184 119.954 32.0531 119.917 32.2627 119.844C32.4769 119.767 32.6615 119.655 32.8164 119.509C32.9714 119.359 33.0876 119.177 33.165 118.962L34.7988 119.297C34.6758 119.708 34.4661 120.068 34.1699 120.377C33.8737 120.683 33.5023 120.922 33.0557 121.095C32.6136 121.264 32.1077 121.348 31.5381 121.348ZM36.4463 124.048L36.4463 113.548H38.1826L38.1826 114.813H38.2988C38.39 114.631 38.5199 114.435 38.6885 114.225C38.8571 114.015 39.085 113.835 39.3721 113.685C39.6637 113.53 40.0352 113.453 40.4863 113.453C41.0788 113.453 41.612 113.603 42.0859 113.904C42.5599 114.205 42.9359 114.649 43.2139 115.237C43.4964 115.82 43.6377 116.536 43.6377 117.383C43.6377 118.222 43.501 118.935 43.2275 119.523C42.9541 120.111 42.5781 120.56 42.0996 120.87C41.6257 121.175 41.0856 121.328 40.4795 121.328C40.0465 121.328 39.6842 121.255 39.3926 121.109C39.1009 120.958 38.8685 120.778 38.6953 120.569C38.5221 120.359 38.39 120.163 38.2988 119.981H38.2236L38.2236 124.048H36.4463ZM40.001 119.865C40.3975 119.865 40.7301 119.758 40.999 119.543C41.2679 119.325 41.4707 119.028 41.6074 118.655C41.7441 118.277 41.8125 117.85 41.8125 117.376C41.8125 116.903 41.7441 116.481 41.6074 116.112C41.4753 115.738 41.2747 115.446 41.0059 115.237C40.737 115.023 40.402 114.916 40.001 114.916C39.609 114.916 39.2786 115.018 39.0098 115.223C38.7409 115.428 38.5358 115.715 38.3945 116.084C38.2578 116.449 38.1895 116.88 38.1895 117.376C38.1895 117.873 38.2578 118.308 38.3945 118.682C38.5358 119.056 38.7409 119.347 39.0098 119.557C39.2832 119.762 39.6136 119.865 40.001 119.865ZM46.96 111.005L46.96 121.191H45.1826L45.1826 111.005H46.96ZM52.1621 121.348C51.4193 121.348 50.7744 121.184 50.2275 120.856C49.6807 120.523 49.2568 120.063 48.9561 119.475C48.6598 118.883 48.5117 118.194 48.5117 117.411C48.5117 116.618 48.6598 115.925 48.9561 115.333C49.2568 114.736 49.6807 114.273 50.2275 113.945C50.7744 113.617 51.4193 113.453 52.1621 113.453C52.9095 113.453 53.5566 113.617 54.1035 113.945C54.6504 114.273 55.0719 114.736 55.3682 115.333C55.6689 115.925 55.8193 116.618 55.8193 117.411C55.8193 118.194 55.6689 118.883 55.3682 119.475C55.0719 120.063 54.6504 120.523 54.1035 120.856C53.5566 121.184 52.9095 121.348 52.1621 121.348ZM52.1621 119.906C52.5768 119.906 52.9209 119.794 53.1943 119.571C53.4723 119.347 53.6774 119.047 53.8096 118.668C53.9463 118.29 54.0146 117.869 54.0146 117.404C54.0146 116.934 53.9463 116.511 53.8096 116.132C53.6774 115.754 53.4723 115.453 53.1943 115.23C52.9209 115.007 52.5768 114.895 52.1621 114.895C51.7474 114.895 51.4033 115.007 51.1299 115.23C50.861 115.453 50.6582 115.754 50.5215 116.132C50.3893 116.506 50.3232 116.93 50.3232 117.404C50.3232 117.869 50.3893 118.29 50.5215 118.668C50.6582 119.047 50.861 119.347 51.1299 119.571C51.4033 119.794 51.7474 119.906 52.1621 119.906ZM57.043 123.918L57.46 122.531L57.6719 122.585C57.9408 122.654 58.18 122.672 58.3896 122.64C58.5993 122.613 58.7747 122.522 58.916 122.367C59.0573 122.216 59.1576 121.995 59.2168 121.704L59.3262 121.218L56.4414 113.548H58.3418L59.7363 117.705C59.9004 118.197 60.0348 118.687 60.1396 119.174C60.2445 119.662 60.3607 120.161 60.4883 120.671H60.0234C60.1465 120.161 60.2695 119.662 60.3926 119.174C60.5156 118.682 60.6592 118.192 60.8232 117.705L62.2656 113.548H64.1455L60.8643 122.175C60.7093 122.581 60.5156 122.927 60.2832 123.214C60.0508 123.506 59.766 123.727 59.4287 123.877C59.0915 124.028 58.6927 124.103 58.2324 124.103C57.9818 124.103 57.7493 124.085 57.5352 124.048C57.3255 124.012 57.1615 123.969 57.043 123.918Z" fill="#52525B"/>
<path d="M17.1006 116.604L64.4121 116.604L64.4121 117.787L17.1006 117.787L17.1006 116.604Z" fill="#52525B"/>
<path d="M128.372 70.0051L128.372 59.8196H131.12L133.055 65.0764C133.123 65.2724 133.198 65.5253 133.28 65.8352C133.367 66.1405 133.453 66.4709 133.54 66.8264C133.631 67.1819 133.715 67.5305 133.793 67.8723C133.875 68.2096 133.943 68.5081 133.998 68.7678H133.629C133.684 68.5126 133.75 68.2187 133.827 67.886C133.909 67.5487 133.993 67.2024 134.08 66.8469C134.171 66.4869 134.258 66.1519 134.34 65.842C134.426 65.5321 134.502 65.2769 134.565 65.0764L136.479 59.8196H139.234L139.234 70.0051H137.416L137.416 64.8645C137.416 64.6458 137.418 64.3814 137.423 64.0715C137.427 63.7616 137.434 63.429 137.443 63.0735C137.452 62.718 137.462 62.3603 137.471 62.0002C137.48 61.6357 137.484 61.2893 137.484 60.9612H137.614C137.523 61.3212 137.423 61.6903 137.313 62.0686C137.209 62.4423 137.104 62.8069 136.999 63.1624C136.894 63.5133 136.794 63.8368 136.698 64.1331C136.607 64.4293 136.527 64.6731 136.459 64.8645L134.579 70.0051H133.027L131.12 64.8645C131.052 64.6731 130.97 64.4338 130.874 64.1467C130.783 63.8551 130.683 63.5338 130.573 63.1829C130.468 62.8319 130.361 62.4674 130.252 62.0891C130.147 61.7063 130.042 61.3303 129.937 60.9612H130.088C130.092 61.2665 130.099 61.5992 130.108 61.9592C130.118 62.3147 130.124 62.6724 130.129 63.0325C130.138 63.3925 130.145 63.732 130.149 64.051C130.159 64.3655 130.163 64.6366 130.163 64.8645L130.163 70.0051H128.372ZM144.02 70.1418C143.423 70.1418 142.887 69.9892 142.413 69.6838C141.939 69.3739 141.563 68.925 141.285 68.3372C141.012 67.7493 140.875 67.0361 140.875 66.1975C140.875 65.3499 141.016 64.6344 141.299 64.051C141.581 63.4631 141.96 63.0188 142.434 62.718C142.912 62.4172 143.445 62.2668 144.033 62.2668C144.484 62.2668 144.854 62.342 145.141 62.4924C145.432 62.6428 145.662 62.8251 145.831 63.0393C146 63.2489 146.127 63.4449 146.214 63.6272H146.296L146.296 62.3625H148.066L148.066 70.0051H146.303L146.303 68.7952H146.214C146.127 68.9775 145.995 69.1757 145.817 69.3899C145.644 69.5995 145.412 69.7773 145.12 69.9231C144.828 70.0689 144.462 70.1418 144.02 70.1418ZM144.519 68.679C144.906 68.679 145.234 68.5764 145.503 68.3713C145.772 68.1617 145.977 67.87 146.118 67.4963C146.259 67.1226 146.33 66.6874 146.33 66.1907C146.33 65.6939 146.259 65.2633 146.118 64.8987C145.981 64.5295 145.779 64.2424 145.51 64.0374C145.241 63.8323 144.91 63.7297 144.519 63.7297C144.118 63.7297 143.78 63.8368 143.507 64.051C143.238 64.2607 143.035 64.55 142.898 64.9192C142.762 65.2883 142.693 65.7122 142.693 66.1907C142.693 66.6646 142.762 67.0907 142.898 67.469C143.04 67.8427 143.245 68.1389 143.514 68.3577C143.787 68.5719 144.122 68.679 144.519 68.679ZM151.724 65.5276L151.724 70.0051H149.946L149.946 62.3625H151.628L151.655 64.2493H151.512C151.726 63.5885 152.04 63.094 152.455 62.7659C152.87 62.4332 153.389 62.2668 154.014 62.2668C154.538 62.2668 154.996 62.3785 155.388 62.6018C155.78 62.8251 156.083 63.151 156.297 63.5793C156.516 64.0077 156.625 64.5295 156.625 65.1448L156.625 70.0051H154.848L154.848 65.4182C154.848 64.9078 154.715 64.5068 154.451 64.2151C154.187 63.9234 153.822 63.7776 153.357 63.7776C153.043 63.7776 152.763 63.8459 152.517 63.9827C152.271 64.1194 152.077 64.3199 151.936 64.5842C151.794 64.844 151.724 65.1584 151.724 65.5276ZM161.328 70.1418C160.731 70.1418 160.196 69.9892 159.722 69.6838C159.248 69.3739 158.872 68.925 158.594 68.3372C158.32 67.7493 158.184 67.0361 158.184 66.1975C158.184 65.3499 158.325 64.6344 158.607 64.051C158.89 63.4631 159.268 63.0188 159.742 62.718C160.221 62.4172 160.754 62.2668 161.342 62.2668C161.793 62.2668 162.162 62.342 162.449 62.4924C162.741 62.6428 162.971 62.8251 163.14 63.0393C163.308 63.2489 163.436 63.4449 163.522 63.6272H163.604L163.604 62.3625H165.375L165.375 70.0051H163.611L163.611 68.7952H163.522C163.436 68.9775 163.304 69.1757 163.126 69.3899C162.953 69.5995 162.72 69.7773 162.429 69.9231C162.137 70.0689 161.77 70.1418 161.328 70.1418ZM161.827 68.679C162.215 68.679 162.543 68.5764 162.812 68.3713C163.08 68.1617 163.285 67.87 163.427 67.4963C163.568 67.1226 163.639 66.6874 163.639 66.1907C163.639 65.6939 163.568 65.2633 163.427 64.8987C163.29 64.5295 163.087 64.2424 162.818 64.0374C162.549 63.8323 162.219 63.7297 161.827 63.7297C161.426 63.7297 161.089 63.8368 160.815 64.051C160.547 64.2607 160.344 64.55 160.207 64.9192C160.07 65.2883 160.002 65.7122 160.002 66.1907C160.002 66.6646 160.07 67.0907 160.207 67.469C160.348 67.8427 160.553 68.1389 160.822 68.3577C161.096 68.5719 161.431 68.679 161.827 68.679ZM170.55 73.0266C169.939 73.0266 169.406 72.9491 168.95 72.7942C168.499 72.6392 168.128 72.4273 167.836 72.1584C167.549 71.8941 167.341 71.5933 167.214 71.2561L168.718 70.7161C168.8 70.8573 168.911 71.0032 169.053 71.1536C169.199 71.304 169.39 71.427 169.627 71.5227C169.868 71.623 170.174 71.6731 170.543 71.6731C171.094 71.6731 171.536 71.5432 171.869 71.2834C172.202 71.0282 172.368 70.6272 172.368 70.0803L172.368 68.6379H172.218C172.131 68.8202 172.004 69.0094 171.835 69.2053C171.666 69.3967 171.438 69.5585 171.151 69.6907C170.869 69.8228 170.507 69.8889 170.064 69.8889C169.481 69.8889 168.95 69.7522 168.472 69.4788C167.998 69.2008 167.619 68.7861 167.337 68.2346C167.059 67.6832 166.92 66.9928 166.92 66.1633C166.92 65.3248 167.061 64.6161 167.344 64.0374C167.626 63.4586 168.005 63.0188 168.479 62.718C168.957 62.4172 169.49 62.2668 170.078 62.2668C170.529 62.2668 170.901 62.342 171.192 62.4924C171.484 62.6428 171.716 62.8251 171.89 63.0393C172.063 63.2489 172.195 63.4449 172.286 63.6272H172.382L172.382 62.3625H174.125L174.125 70.0256C174.125 70.7047 173.97 71.2652 173.66 71.7073C173.35 72.1539 172.926 72.4843 172.389 72.6985C171.851 72.9172 171.238 73.0266 170.55 73.0266ZM170.563 68.4875C170.951 68.4875 171.279 68.3964 171.548 68.2141C171.817 68.0273 172.022 67.7584 172.163 67.4075C172.304 67.0566 172.375 66.6373 172.375 66.1497C172.375 65.6666 172.304 65.245 172.163 64.885C172.026 64.5204 171.824 64.2379 171.555 64.0374C171.286 63.8323 170.955 63.7297 170.563 63.7297C170.162 63.7297 169.825 63.8368 169.552 64.051C169.283 64.2607 169.08 64.5478 168.943 64.9124C168.807 65.2724 168.738 65.6848 168.738 66.1497C168.738 66.6191 168.807 67.0292 168.943 67.3801C169.085 67.731 169.29 68.0045 169.559 68.2004C169.832 68.3918 170.167 68.4875 170.563 68.4875ZM179.396 70.1624C178.625 70.1624 177.962 70.0006 177.406 69.677C176.855 69.3534 176.429 68.8977 176.128 68.3098C175.832 67.7219 175.684 67.0292 175.684 66.2317C175.684 65.4433 175.829 64.7528 176.121 64.1604C176.417 63.568 176.834 63.1054 177.372 62.7727C177.914 62.4355 178.55 62.2668 179.279 62.2668C179.744 62.2668 180.186 62.342 180.605 62.4924C181.029 62.6428 181.403 62.8752 181.727 63.1897C182.055 63.5042 182.31 63.9052 182.492 64.3928C182.679 64.8759 182.772 65.4524 182.772 66.1223L182.772 66.6829H176.524L176.524 65.4729H181.891L181.057 65.8284C181.057 65.4 180.991 65.024 180.858 64.7004C180.726 64.3723 180.528 64.1171 180.264 63.9348C180.004 63.7525 179.678 63.6614 179.286 63.6614C178.894 63.6614 178.562 63.7548 178.288 63.9417C178.015 64.1239 177.805 64.37 177.659 64.6799C177.518 64.9853 177.447 65.3271 177.447 65.7053L177.447 66.5393C177.447 67.0224 177.529 67.4303 177.693 67.7629C177.857 68.0956 178.088 68.3463 178.384 68.5149C178.68 68.6835 179.024 68.7678 179.416 68.7678C179.676 68.7678 179.91 68.7314 180.12 68.6584C180.334 68.581 180.519 68.4693 180.674 68.3235C180.829 68.1731 180.945 67.9908 181.022 67.7766L182.656 68.1116C182.533 68.5217 182.324 68.8818 182.027 69.1917C181.731 69.497 181.36 69.7362 180.913 69.9094C180.471 70.078 179.965 70.1624 179.396 70.1624ZM187.12 70.1418C186.519 70.1418 185.979 69.9892 185.5 69.6838C185.026 69.3739 184.652 68.925 184.379 68.3372C184.105 67.7493 183.969 67.0361 183.969 66.1975C183.969 65.3499 184.108 64.6344 184.386 64.051C184.668 63.4631 185.047 63.0188 185.521 62.718C185.999 62.4172 186.53 62.2668 187.113 62.2668C187.569 62.2668 187.94 62.3443 188.228 62.4993C188.519 62.6497 188.749 62.8297 188.918 63.0393C189.091 63.2489 189.221 63.4449 189.308 63.6272H189.383L189.383 59.8196H191.16L191.16 70.0051H189.417L189.417 68.7952H189.308C189.216 68.9775 189.082 69.1734 188.904 69.3831C188.731 69.5927 188.501 69.7727 188.214 69.9231C187.927 70.0689 187.562 70.1418 187.12 70.1418ZM187.605 68.679C187.993 68.679 188.321 68.5764 188.59 68.3713C188.859 68.1617 189.064 67.87 189.205 67.4963C189.346 67.1226 189.417 66.6874 189.417 66.1907C189.417 65.6939 189.346 65.2633 189.205 64.8987C189.068 64.5295 188.863 64.2424 188.59 64.0374C188.321 63.8323 187.993 63.7297 187.605 63.7297C187.204 63.7297 186.869 63.8368 186.601 64.051C186.332 64.2607 186.129 64.5523 185.992 64.926C185.855 65.2952 185.787 65.7167 185.787 66.1907C185.787 66.6646 185.855 67.0907 185.992 67.469C186.129 67.8427 186.332 68.1389 186.601 68.3577C186.874 68.5719 187.209 68.679 187.605 68.679ZM126.786 90.0051L126.786 82.3625H128.509L128.509 83.6409H128.591C128.728 83.1988 128.967 82.8593 129.309 82.6223C129.65 82.3808 130.04 82.26 130.478 82.26C130.578 82.26 130.689 82.2646 130.812 82.2737C130.936 82.2828 131.04 82.2942 131.127 82.3079L131.127 83.9417C131.054 83.9189 130.936 83.8984 130.771 83.8801C130.607 83.8619 130.446 83.8528 130.286 83.8528C129.958 83.8528 129.662 83.9234 129.397 84.0647C129.138 84.206 128.933 84.4019 128.782 84.6526C128.636 84.8987 128.563 85.1835 128.563 85.5071L128.563 90.0051H126.786ZM135.427 90.1624C134.657 90.1624 133.993 90.0006 133.437 89.677C132.886 89.3534 132.46 88.8977 132.159 88.3098C131.863 87.7219 131.715 87.0292 131.715 86.2317C131.715 85.4433 131.861 84.7528 132.152 84.1604C132.449 83.568 132.866 83.1054 133.403 82.7727C133.946 82.4355 134.581 82.2668 135.311 82.2668C135.775 82.2668 136.217 82.342 136.637 82.4924C137.061 82.6428 137.434 82.8752 137.758 83.1897C138.086 83.5042 138.341 83.9052 138.523 84.3928C138.71 84.8759 138.804 85.4524 138.804 86.1223L138.804 86.6829H132.556L132.556 85.4729H137.922L137.088 85.8284C137.088 85.4 137.022 85.024 136.89 84.7004C136.757 84.3723 136.559 84.1171 136.295 83.9348C136.035 83.7525 135.709 83.6614 135.317 83.6614C134.925 83.6614 134.593 83.7548 134.319 83.9417C134.046 84.1239 133.836 84.37 133.69 84.6799C133.549 84.9853 133.479 85.3271 133.479 85.7053L133.479 86.5393C133.479 87.0224 133.561 87.4303 133.725 87.7629C133.889 88.0956 134.119 88.3463 134.415 88.5149C134.711 88.6835 135.055 88.7678 135.447 88.7678C135.707 88.7678 135.942 88.7314 136.151 88.6584C136.366 88.581 136.55 88.4693 136.705 88.3235C136.86 88.1731 136.976 87.9908 137.054 87.7766L138.687 88.1116C138.564 88.5217 138.355 88.8818 138.059 89.1917C137.762 89.497 137.391 89.7362 136.944 89.9094C136.502 90.078 135.996 90.1624 135.427 90.1624ZM143.227 90.1624C142.639 90.1624 142.119 90.078 141.668 89.9094C141.217 89.7408 140.845 89.4947 140.554 89.1711C140.267 88.8476 140.08 88.4556 139.993 87.9954L141.654 87.6809C141.759 88.0592 141.944 88.3417 142.208 88.5286C142.477 88.7109 142.828 88.802 143.261 88.802C143.698 88.802 144.045 88.7154 144.3 88.5422C144.56 88.3645 144.689 88.1458 144.689 87.886C144.689 87.6672 144.605 87.4872 144.437 87.3459C144.268 87.2001 144.008 87.0885 143.657 87.011L142.352 86.7307C141.632 86.5758 141.094 86.3206 140.738 85.9651C140.383 85.6096 140.205 85.1516 140.205 84.5911C140.205 84.1171 140.335 83.7069 140.595 83.3606C140.854 83.0142 141.215 82.7454 141.675 82.554C142.14 82.3625 142.677 82.2668 143.288 82.2668C143.867 82.2668 144.364 82.3489 144.778 82.5129C145.198 82.677 145.535 82.9071 145.79 83.2034C146.05 83.495 146.23 83.8391 146.33 84.2356L144.744 84.55C144.658 84.2812 144.5 84.0556 144.272 83.8733C144.045 83.6864 143.723 83.593 143.309 83.593C142.93 83.593 142.614 83.6773 142.358 83.8459C142.108 84.01 141.982 84.2219 141.982 84.4817C141.982 84.705 142.067 84.8896 142.235 85.0354C142.404 85.1812 142.682 85.2952 143.069 85.3772L144.368 85.6506C145.093 85.8056 145.631 86.054 145.981 86.3958C146.332 86.7375 146.508 87.1773 146.508 87.7151C146.508 88.1982 146.369 88.6243 146.091 88.9934C145.813 89.358 145.425 89.6451 144.929 89.8547C144.437 90.0598 143.869 90.1624 143.227 90.1624ZM151.348 90.1624C150.605 90.1624 149.96 89.9983 149.413 89.6702C148.866 89.3375 148.442 88.8772 148.142 88.2893C147.845 87.6969 147.697 87.0087 147.697 86.2249C147.697 85.4319 147.845 84.7392 148.142 84.1467C148.442 83.5497 148.866 83.0872 149.413 82.759C149.96 82.4309 150.605 82.2668 151.348 82.2668C152.095 82.2668 152.742 82.4309 153.289 82.759C153.836 83.0872 154.257 83.5497 154.554 84.1467C154.854 84.7392 155.005 85.4319 155.005 86.2249C155.005 87.0087 154.854 87.6969 154.554 88.2893C154.257 88.8772 153.836 89.3375 153.289 89.6702C152.742 89.9983 152.095 90.1624 151.348 90.1624ZM151.348 88.72C151.762 88.72 152.106 88.6083 152.38 88.385C152.658 88.1617 152.863 87.8609 152.995 87.4827C153.132 87.1044 153.2 86.6829 153.2 86.218C153.2 85.7486 153.132 85.3248 152.995 84.9465C152.863 84.5683 152.658 84.2675 152.38 84.0442C152.106 83.8209 151.762 83.7092 151.348 83.7092C150.933 83.7092 150.589 83.8209 150.315 84.0442C150.047 84.2675 149.844 84.5683 149.707 84.9465C149.575 85.3202 149.509 85.7441 149.509 86.218C149.509 86.6829 149.575 87.1044 149.707 87.4827C149.844 87.8609 150.047 88.1617 150.315 88.385C150.589 88.6083 150.933 88.72 151.348 88.72ZM159.182 90.1008C158.658 90.1008 158.197 89.9892 157.801 89.7659C157.409 89.5426 157.104 89.2167 156.885 88.7883C156.671 88.3554 156.563 87.8336 156.563 87.2229L156.563 82.3625H158.341L158.341 86.9495C158.341 87.4599 158.473 87.8609 158.737 88.1526C159.006 88.4443 159.373 88.5901 159.838 88.5901C160.152 88.5901 160.433 88.5217 160.679 88.385C160.925 88.2483 161.116 88.0478 161.253 87.7834C161.394 87.5191 161.465 87.2047 161.465 86.8401L161.465 82.3625H163.249L163.249 90.0051H161.561L161.54 88.1184H161.677C161.463 88.7838 161.146 89.2805 160.727 89.6086C160.307 89.9368 159.792 90.1008 159.182 90.1008ZM165.136 90.0051L165.136 82.3625H166.858L166.858 83.6409H166.94C167.077 83.1988 167.316 82.8593 167.658 82.6223C168 82.3808 168.39 82.26 168.827 82.26C168.927 82.26 169.039 82.2646 169.162 82.2737C169.285 82.2828 169.39 82.2942 169.477 82.3079L169.477 83.9417C169.404 83.9189 169.285 83.8984 169.121 83.8801C168.957 83.8619 168.795 83.8528 168.636 83.8528C168.308 83.8528 168.011 83.9234 167.747 84.0647C167.487 84.206 167.282 84.4019 167.132 84.6526C166.986 84.8987 166.913 85.1835 166.913 85.5071L166.913 90.0051H165.136ZM173.715 90.1624C172.972 90.1624 172.327 89.9983 171.78 89.6702C171.233 89.3375 170.81 88.8772 170.509 88.2893C170.213 87.6969 170.064 87.0087 170.064 86.2249C170.064 85.4319 170.213 84.7392 170.509 84.1467C170.81 83.5497 171.233 83.0872 171.78 82.759C172.327 82.4309 172.972 82.2668 173.715 82.2668C174.139 82.2668 174.533 82.3215 174.897 82.4309C175.262 82.5403 175.588 82.6998 175.875 82.9094C176.162 83.1145 176.401 83.3652 176.593 83.6614C176.789 83.9576 176.928 84.2926 177.01 84.6663L175.349 85.0149C175.299 84.8189 175.226 84.6412 175.13 84.4817C175.039 84.3176 174.925 84.1786 174.788 84.0647C174.651 83.9508 174.494 83.8642 174.316 83.8049C174.139 83.7411 173.943 83.7092 173.729 83.7092C173.314 83.7092 172.97 83.8209 172.696 84.0442C172.423 84.2629 172.218 84.5614 172.081 84.9397C171.944 85.3134 171.876 85.7395 171.876 86.218C171.876 86.6874 171.944 87.1112 172.081 87.4895C172.218 87.8678 172.423 88.1685 172.696 88.3918C172.97 88.6106 173.314 88.72 173.729 88.72C173.947 88.72 174.146 88.6881 174.323 88.6243C174.506 88.5605 174.665 88.4693 174.802 88.3508C174.943 88.2323 175.062 88.0888 175.157 87.9202C175.253 87.7515 175.324 87.5647 175.369 87.3596L177.03 87.7083C176.948 88.0911 176.809 88.4329 176.613 88.7336C176.422 89.0344 176.18 89.2919 175.889 89.5061C175.602 89.7157 175.273 89.8775 174.904 89.9915C174.54 90.1054 174.143 90.1624 173.715 90.1624ZM181.938 90.1624C181.168 90.1624 180.505 90.0006 179.949 89.677C179.398 89.3534 178.972 88.8977 178.671 88.3098C178.375 87.7219 178.227 87.0292 178.227 86.2317C178.227 85.4433 178.372 84.7528 178.664 84.1604C178.96 83.568 179.377 83.1054 179.915 82.7727C180.457 82.4355 181.093 82.2668 181.822 82.2668C182.287 82.2668 182.729 82.342 183.148 82.4924C183.572 82.6428 183.946 82.8752 184.27 83.1897C184.598 83.5042 184.853 83.9052 185.035 84.3928C185.222 84.8759 185.315 85.4524 185.315 86.1223L185.315 86.6829H179.067L179.067 85.4729H184.434L183.6 85.8284C183.6 85.4 183.534 85.024 183.401 84.7004C183.269 84.3723 183.071 84.1171 182.807 83.9348C182.547 83.7525 182.221 83.6614 181.829 83.6614C181.437 83.6614 181.104 83.7548 180.831 83.9417C180.558 84.1239 180.348 84.37 180.202 84.6799C180.061 84.9853 179.99 85.3271 179.99 85.7053L179.99 86.5393C179.99 87.0224 180.072 87.4303 180.236 87.7629C180.4 88.0956 180.631 88.3463 180.927 88.5149C181.223 88.6835 181.567 88.7678 181.959 88.7678C182.219 88.7678 182.453 88.7314 182.663 88.6584C182.877 88.581 183.062 88.4693 183.217 88.3235C183.372 88.1731 183.488 87.9908 183.565 87.7766L185.199 88.1116C185.076 88.5217 184.867 88.8818 184.57 89.1917C184.274 89.497 183.903 89.7362 183.456 89.9094C183.014 90.078 182.508 90.1624 181.938 90.1624ZM189.738 90.1624C189.15 90.1624 188.631 90.078 188.18 89.9094C187.729 89.7408 187.357 89.4947 187.065 89.1711C186.778 88.8476 186.591 88.4556 186.505 87.9954L188.166 87.6809C188.271 88.0592 188.455 88.3417 188.72 88.5286C188.989 88.7109 189.34 88.802 189.772 88.802C190.21 88.802 190.556 88.7154 190.812 88.5422C191.071 88.3645 191.201 88.1458 191.201 87.886C191.201 87.6672 191.117 87.4872 190.948 87.3459C190.78 87.2001 190.52 87.0885 190.169 87.011L188.863 86.7307C188.143 86.5758 187.605 86.3206 187.25 85.9651C186.895 85.6096 186.717 85.1516 186.717 84.5911C186.717 84.1171 186.847 83.7069 187.106 83.3606C187.366 83.0142 187.726 82.7454 188.187 82.554C188.651 82.3625 189.189 82.2668 189.8 82.2668C190.379 82.2668 190.875 82.3489 191.29 82.5129C191.709 82.677 192.047 82.9071 192.302 83.2034C192.562 83.495 192.742 83.8391 192.842 84.2356L191.256 84.55C191.169 84.2812 191.012 84.0556 190.784 83.8733C190.556 83.6864 190.235 83.593 189.82 83.593C189.442 83.593 189.125 83.6773 188.87 83.8459C188.619 84.01 188.494 84.2219 188.494 84.4817C188.494 84.705 188.578 84.8896 188.747 85.0354C188.916 85.1812 189.194 85.2952 189.581 85.3772L190.88 85.6506C191.604 85.8056 192.142 86.054 192.493 86.3958C192.844 86.7375 193.02 87.1773 193.02 87.7151C193.02 88.1982 192.881 88.6243 192.603 88.9934C192.325 89.358 191.937 89.6451 191.44 89.8547C190.948 90.0598 190.381 90.1624 189.738 90.1624Z" fill="#52525B"/>
<path d="M127.347 65.4182L192.097 65.4182L192.097 66.6008L127.347 66.6008L127.347 65.4182ZM125.843 85.4182L193.594 85.4182L193.594 86.6008L125.843 86.6008L125.843 85.4182Z" fill="#52525B"/>
<path d="M250.308 116.001C249.519 116.001 248.833 115.878 248.25 115.632C247.671 115.386 247.218 115.028 246.89 114.559C246.562 114.089 246.384 113.52 246.356 112.85H248.154C248.186 113.205 248.298 113.501 248.489 113.738C248.681 113.975 248.934 114.153 249.248 114.271C249.562 114.385 249.911 114.442 250.294 114.442C250.695 114.442 251.048 114.381 251.354 114.258C251.663 114.135 251.905 113.964 252.078 113.745C252.251 113.522 252.338 113.264 252.338 112.973C252.338 112.708 252.26 112.49 252.105 112.316C251.955 112.143 251.741 111.997 251.463 111.879C251.189 111.756 250.868 111.649 250.499 111.558L249.344 111.257C248.492 111.038 247.826 110.708 247.348 110.266C246.874 109.824 246.637 109.243 246.637 108.522C246.637 107.921 246.799 107.395 247.122 106.943C247.446 106.492 247.888 106.144 248.448 105.897C249.009 105.647 249.645 105.521 250.355 105.521C251.08 105.521 251.716 105.647 252.263 105.897C252.81 106.148 253.236 106.494 253.541 106.937C253.851 107.379 254.013 107.882 254.026 108.447H252.256C252.21 108.01 252.014 107.673 251.668 107.436C251.326 107.194 250.88 107.073 250.328 107.073C249.945 107.073 249.615 107.132 249.337 107.251C249.063 107.365 248.852 107.522 248.701 107.723C248.555 107.923 248.482 108.153 248.482 108.413C248.482 108.696 248.569 108.928 248.742 109.11C248.92 109.293 249.141 109.438 249.405 109.548C249.674 109.657 249.945 109.746 250.219 109.814L251.169 110.061C251.547 110.152 251.914 110.272 252.27 110.423C252.625 110.573 252.944 110.765 253.227 110.997C253.514 111.225 253.742 111.503 253.91 111.831C254.079 112.159 254.163 112.544 254.163 112.986C254.163 113.583 254.01 114.11 253.705 114.565C253.4 115.017 252.96 115.37 252.386 115.625C251.812 115.876 251.119 116.001 250.308 116.001ZM259.133 116.001C258.363 116.001 257.7 115.839 257.144 115.516C256.592 115.192 256.166 114.736 255.865 114.148C255.569 113.561 255.421 112.868 255.421 112.07C255.421 111.282 255.567 110.591 255.858 109.999C256.155 109.407 256.572 108.944 257.109 108.611C257.652 108.274 258.287 108.105 259.017 108.105C259.481 108.105 259.924 108.181 260.343 108.331C260.767 108.481 261.14 108.714 261.464 109.028C261.792 109.343 262.047 109.744 262.229 110.231C262.416 110.715 262.51 111.291 262.51 111.961L262.51 112.521H256.262L256.262 111.312H261.628L260.794 111.667C260.794 111.239 260.728 110.863 260.596 110.539C260.464 110.211 260.265 109.956 260.001 109.773C259.741 109.591 259.415 109.5 259.023 109.5C258.632 109.5 258.299 109.593 258.025 109.78C257.752 109.963 257.542 110.209 257.396 110.519C257.255 110.824 257.185 111.166 257.185 111.544L257.185 112.378C257.185 112.861 257.267 113.269 257.431 113.602C257.595 113.934 257.825 114.185 258.121 114.354C258.417 114.522 258.761 114.606 259.153 114.606C259.413 114.606 259.648 114.57 259.857 114.497C260.072 114.42 260.256 114.308 260.411 114.162C260.566 114.012 260.682 113.829 260.76 113.615L262.394 113.95C262.271 114.36 262.061 114.72 261.765 115.03C261.468 115.336 261.097 115.575 260.65 115.748C260.208 115.917 259.702 116.001 259.133 116.001ZM267.575 108.201L267.575 109.596H263.234L263.234 108.201H267.575ZM264.321 106.383H266.099L266.099 113.69C266.099 113.968 266.158 114.174 266.276 114.306C266.395 114.433 266.589 114.497 266.857 114.497C266.939 114.497 267.047 114.488 267.179 114.47C267.315 114.447 267.425 114.426 267.507 114.408L267.787 115.782C267.591 115.841 267.391 115.882 267.186 115.905C266.98 115.933 266.785 115.946 266.598 115.946C265.864 115.946 265.301 115.764 264.909 115.399C264.517 115.035 264.321 114.515 264.321 113.841L264.321 106.383ZM271.608 115.939C271.084 115.939 270.624 115.828 270.228 115.604C269.836 115.381 269.53 115.055 269.312 114.627C269.097 114.194 268.99 113.672 268.99 113.062L268.99 108.201H270.768L270.768 112.788C270.768 113.299 270.9 113.7 271.164 113.991C271.433 114.283 271.8 114.429 272.265 114.429C272.579 114.429 272.859 114.36 273.105 114.224C273.352 114.087 273.543 113.886 273.68 113.622C273.821 113.358 273.892 113.043 273.892 112.679L273.892 108.201H275.676L275.676 115.844H273.987L273.967 113.957H274.104C273.889 114.622 273.573 115.119 273.153 115.447C272.734 115.775 272.219 115.939 271.608 115.939ZM277.562 118.701L277.562 108.201H279.299L279.299 109.466H279.415C279.506 109.284 279.636 109.088 279.805 108.878C279.973 108.668 280.201 108.488 280.488 108.338C280.78 108.183 281.151 108.105 281.603 108.105C282.195 108.105 282.728 108.256 283.202 108.557C283.676 108.857 284.052 109.302 284.33 109.89C284.613 110.473 284.754 111.188 284.754 112.036C284.754 112.875 284.617 113.588 284.344 114.176C284.07 114.764 283.694 115.213 283.216 115.522C282.742 115.828 282.202 115.98 281.596 115.98C281.163 115.98 280.8 115.908 280.509 115.762C280.217 115.611 279.985 115.431 279.812 115.222C279.638 115.012 279.506 114.816 279.415 114.634H279.34L279.34 118.701H277.562ZM281.117 114.518C281.514 114.518 281.846 114.41 282.115 114.196C282.384 113.978 282.587 113.681 282.724 113.308C282.86 112.929 282.929 112.503 282.929 112.029C282.929 111.555 282.86 111.134 282.724 110.765C282.591 110.391 282.391 110.099 282.122 109.89C281.853 109.675 281.518 109.568 281.117 109.568C280.725 109.568 280.395 109.671 280.126 109.876C279.857 110.081 279.652 110.368 279.511 110.737C279.374 111.102 279.306 111.533 279.306 112.029C279.306 112.526 279.374 112.961 279.511 113.335C279.652 113.709 279.857 114 280.126 114.21C280.399 114.415 280.73 114.518 281.117 114.518ZM291.604 105.658L291.604 115.844H289.826L289.826 105.658H291.604ZM296.806 116.001C296.063 116.001 295.418 115.837 294.871 115.509C294.324 115.176 293.9 114.716 293.6 114.128C293.303 113.535 293.155 112.847 293.155 112.063C293.155 111.271 293.303 110.578 293.6 109.985C293.9 109.388 294.324 108.926 294.871 108.598C295.418 108.27 296.063 108.105 296.806 108.105C297.553 108.105 298.2 108.27 298.747 108.598C299.294 108.926 299.715 109.388 300.012 109.985C300.312 110.578 300.463 111.271 300.463 112.063C300.463 112.847 300.312 113.535 300.012 114.128C299.715 114.716 299.294 115.176 298.747 115.509C298.2 115.837 297.553 116.001 296.806 116.001ZM296.806 114.559C297.22 114.559 297.564 114.447 297.838 114.224C298.116 114 298.321 113.7 298.453 113.321C298.59 112.943 298.658 112.521 298.658 112.057C298.658 111.587 298.59 111.163 298.453 110.785C298.321 110.407 298.116 110.106 297.838 109.883C297.564 109.66 297.22 109.548 296.806 109.548C296.391 109.548 296.047 109.66 295.773 109.883C295.505 110.106 295.302 110.407 295.165 110.785C295.033 111.159 294.967 111.583 294.967 112.057C294.967 112.521 295.033 112.943 295.165 113.321C295.302 113.7 295.505 114 295.773 114.224C296.047 114.447 296.391 114.559 296.806 114.559ZM305.337 116.001C304.594 116.001 303.949 115.837 303.402 115.509C302.855 115.176 302.432 114.716 302.131 114.128C301.835 113.535 301.687 112.847 301.687 112.063C301.687 111.271 301.835 110.578 302.131 109.985C302.432 109.388 302.855 108.926 303.402 108.598C303.949 108.27 304.594 108.105 305.337 108.105C305.761 108.105 306.155 108.16 306.52 108.27C306.884 108.379 307.21 108.538 307.497 108.748C307.784 108.953 308.023 109.204 308.215 109.5C308.411 109.796 308.55 110.131 308.632 110.505L306.971 110.854C306.921 110.658 306.848 110.48 306.752 110.32C306.661 110.156 306.547 110.017 306.41 109.903C306.273 109.789 306.116 109.703 305.938 109.644C305.761 109.58 305.565 109.548 305.351 109.548C304.936 109.548 304.592 109.66 304.318 109.883C304.045 110.102 303.84 110.4 303.703 110.778C303.566 111.152 303.498 111.578 303.498 112.057C303.498 112.526 303.566 112.95 303.703 113.328C303.84 113.706 304.045 114.007 304.318 114.23C304.592 114.449 304.936 114.559 305.351 114.559C305.569 114.559 305.768 114.527 305.945 114.463C306.128 114.399 306.287 114.308 306.424 114.189C306.565 114.071 306.684 113.927 306.779 113.759C306.875 113.59 306.946 113.403 306.991 113.198L308.652 113.547C308.57 113.93 308.431 114.271 308.235 114.572C308.044 114.873 307.802 115.131 307.511 115.345C307.224 115.554 306.896 115.716 306.526 115.83C306.162 115.944 305.765 116.001 305.337 116.001ZM312.993 115.98C312.396 115.98 311.861 115.828 311.387 115.522C310.913 115.213 310.537 114.764 310.259 114.176C309.985 113.588 309.849 112.875 309.849 112.036C309.849 111.188 309.99 110.473 310.272 109.89C310.555 109.302 310.933 108.857 311.407 108.557C311.886 108.256 312.419 108.105 313.007 108.105C313.458 108.105 313.827 108.181 314.114 108.331C314.406 108.481 314.636 108.664 314.805 108.878C314.973 109.088 315.101 109.284 315.187 109.466H315.27L315.27 108.201H317.04L317.04 115.844H315.276L315.276 114.634H315.187C315.101 114.816 314.969 115.014 314.791 115.229C314.618 115.438 314.385 115.616 314.094 115.762C313.802 115.908 313.435 115.98 312.993 115.98ZM313.492 114.518C313.88 114.518 314.208 114.415 314.477 114.21C314.745 114 314.951 113.709 315.092 113.335C315.233 112.961 315.304 112.526 315.304 112.029C315.304 111.533 315.233 111.102 315.092 110.737C314.955 110.368 314.752 110.081 314.483 109.876C314.215 109.671 313.884 109.568 313.492 109.568C313.091 109.568 312.754 109.675 312.48 109.89C312.212 110.099 312.009 110.389 311.872 110.758C311.735 111.127 311.667 111.551 311.667 112.029C311.667 112.503 311.735 112.929 311.872 113.308C312.013 113.681 312.218 113.978 312.487 114.196C312.761 114.41 313.096 114.518 313.492 114.518ZM320.697 105.658L320.697 115.844H318.92L318.92 105.658H320.697ZM245.352 136.001C244.581 136.001 243.918 135.839 243.362 135.516C242.811 135.192 242.385 134.736 242.084 134.148C241.788 133.561 241.64 132.868 241.64 132.07C241.64 131.282 241.785 130.591 242.077 129.999C242.373 129.407 242.79 128.944 243.328 128.611C243.87 128.274 244.506 128.105 245.235 128.105C245.7 128.105 246.142 128.181 246.562 128.331C246.985 128.481 247.359 128.714 247.683 129.028C248.011 129.343 248.266 129.744 248.448 130.231C248.635 130.715 248.729 131.291 248.729 131.961L248.729 132.521H242.48L242.48 131.312H247.847L247.013 131.667C247.013 131.239 246.947 130.863 246.814 130.539C246.682 130.211 246.484 129.956 246.22 129.773C245.96 129.591 245.634 129.5 245.242 129.5C244.85 129.5 244.518 129.593 244.244 129.78C243.971 129.963 243.761 130.209 243.615 130.519C243.474 130.824 243.403 131.166 243.403 131.544L243.403 132.378C243.403 132.861 243.485 133.269 243.649 133.602C243.813 133.934 244.044 134.185 244.34 134.354C244.636 134.522 244.98 134.606 245.372 134.606C245.632 134.606 245.867 134.57 246.076 134.497C246.29 134.42 246.475 134.308 246.63 134.162C246.785 134.012 246.901 133.829 246.979 133.615L248.612 133.95C248.489 134.36 248.28 134.72 247.983 135.03C247.687 135.336 247.316 135.575 246.869 135.748C246.427 135.917 245.921 136.001 245.352 136.001ZM252.037 131.366L252.037 135.844H250.26L250.26 128.201H251.941L251.969 130.088H251.825C252.039 129.427 252.354 128.933 252.769 128.604C253.183 128.272 253.703 128.105 254.327 128.105C254.851 128.105 255.309 128.217 255.701 128.44C256.093 128.664 256.396 128.99 256.61 129.418C256.829 129.846 256.938 130.368 256.938 130.983L256.938 135.844H255.161L255.161 131.257C255.161 130.746 255.029 130.345 254.765 130.054C254.5 129.762 254.136 129.616 253.671 129.616C253.356 129.616 253.076 129.685 252.83 129.821C252.584 129.958 252.39 130.159 252.249 130.423C252.108 130.683 252.037 130.997 252.037 131.366ZM260.767 135.844L257.923 128.201H259.823L261.218 132.357C261.382 132.845 261.523 133.335 261.642 133.827C261.76 134.319 261.881 134.818 262.004 135.324H261.56C261.687 134.818 261.808 134.319 261.922 133.827C262.04 133.335 262.179 132.845 262.339 132.357L263.727 128.201H265.613L262.756 135.844H260.767ZM266.816 135.844L266.816 128.201H268.594L268.594 135.844H266.816ZM267.705 127.121C267.423 127.121 267.179 127.025 266.974 126.834C266.773 126.643 266.673 126.415 266.673 126.15C266.673 125.877 266.773 125.647 266.974 125.46C267.179 125.269 267.423 125.173 267.705 125.173C267.992 125.173 268.236 125.269 268.437 125.46C268.642 125.647 268.744 125.877 268.744 126.15C268.744 126.415 268.642 126.643 268.437 126.834C268.236 127.025 267.992 127.121 267.705 127.121ZM270.48 135.844L270.48 128.201H272.203L272.203 129.479H272.285C272.422 129.037 272.661 128.698 273.003 128.461C273.345 128.219 273.734 128.099 274.172 128.099C274.272 128.099 274.384 128.103 274.507 128.112C274.63 128.121 274.735 128.133 274.821 128.146L274.821 129.78C274.748 129.757 274.63 129.737 274.466 129.719C274.302 129.701 274.14 129.691 273.98 129.691C273.652 129.691 273.356 129.762 273.092 129.903C272.832 130.045 272.627 130.241 272.477 130.491C272.331 130.737 272.258 131.022 272.258 131.346L272.258 135.844H270.48ZM279.06 136.001C278.317 136.001 277.672 135.837 277.125 135.509C276.578 135.176 276.154 134.716 275.854 134.128C275.557 133.535 275.409 132.847 275.409 132.063C275.409 131.271 275.557 130.578 275.854 129.985C276.154 129.388 276.578 128.926 277.125 128.598C277.672 128.27 278.317 128.105 279.06 128.105C279.807 128.105 280.454 128.27 281.001 128.598C281.548 128.926 281.969 129.388 282.266 129.985C282.566 130.578 282.717 131.271 282.717 132.063C282.717 132.847 282.566 133.535 282.266 134.128C281.969 134.716 281.548 135.176 281.001 135.509C280.454 135.837 279.807 136.001 279.06 136.001ZM279.06 134.559C279.474 134.559 279.818 134.447 280.092 134.224C280.37 134 280.575 133.7 280.707 133.321C280.844 132.943 280.912 132.521 280.912 132.057C280.912 131.587 280.844 131.163 280.707 130.785C280.575 130.407 280.37 130.106 280.092 129.883C279.818 129.66 279.474 129.548 279.06 129.548C278.645 129.548 278.301 129.66 278.027 129.883C277.758 130.106 277.556 130.407 277.419 130.785C277.287 131.159 277.221 131.583 277.221 132.057C277.221 132.521 277.287 132.943 277.419 133.321C277.556 133.7 277.758 134 278.027 134.224C278.301 134.447 278.645 134.559 279.06 134.559ZM286.053 131.366L286.053 135.844H284.275L284.275 128.201H285.957L285.984 130.088H285.841C286.055 129.427 286.369 128.933 286.784 128.604C287.199 128.272 287.718 128.105 288.343 128.105C288.867 128.105 289.325 128.217 289.717 128.44C290.109 128.664 290.412 128.99 290.626 129.418C290.845 129.846 290.954 130.368 290.954 130.983L290.954 135.844H289.177L289.177 131.257C289.177 130.746 289.045 130.345 288.78 130.054C288.516 129.762 288.151 129.616 287.687 129.616C287.372 129.616 287.092 129.685 286.846 129.821C286.6 129.958 286.406 130.159 286.265 130.423C286.123 130.683 286.053 130.997 286.053 131.366ZM292.848 135.844L292.848 128.201H294.516L294.584 130.04H294.454C294.563 129.584 294.732 129.213 294.96 128.926C295.192 128.639 295.461 128.427 295.767 128.29C296.076 128.149 296.4 128.078 296.737 128.078C297.289 128.078 297.733 128.251 298.07 128.598C298.412 128.944 298.654 129.454 298.795 130.129H298.583C298.688 129.673 298.866 129.295 299.116 128.994C299.371 128.689 299.672 128.461 300.019 128.311C300.369 128.156 300.743 128.078 301.14 128.078C301.6 128.078 302.012 128.178 302.377 128.379C302.742 128.579 303.031 128.873 303.245 129.261C303.459 129.644 303.566 130.12 303.566 130.689L303.566 135.844H301.782L301.782 130.963C301.782 130.489 301.652 130.143 301.393 129.924C301.137 129.705 300.827 129.596 300.463 129.596C300.18 129.596 299.934 129.657 299.725 129.78C299.515 129.903 299.353 130.074 299.239 130.293C299.13 130.507 299.075 130.758 299.075 131.045L299.075 135.844H297.339L297.339 130.881C297.339 130.493 297.218 130.184 296.977 129.951C296.735 129.714 296.425 129.596 296.047 129.596C295.787 129.596 295.548 129.655 295.329 129.773C295.115 129.892 294.944 130.067 294.816 130.3C294.689 130.532 294.625 130.819 294.625 131.161L294.625 135.844H292.848ZM308.83 136.001C308.06 136.001 307.397 135.839 306.841 135.516C306.289 135.192 305.863 134.736 305.562 134.148C305.266 133.561 305.118 132.868 305.118 132.07C305.118 131.282 305.264 130.591 305.556 129.999C305.852 129.407 306.269 128.944 306.807 128.611C307.349 128.274 307.985 128.105 308.714 128.105C309.179 128.105 309.621 128.181 310.04 128.331C310.464 128.481 310.838 128.714 311.161 129.028C311.489 129.343 311.744 129.744 311.927 130.231C312.114 130.715 312.207 131.291 312.207 131.961L312.207 132.521H305.959L305.959 131.312H311.325L310.491 131.667C310.491 131.239 310.425 130.863 310.293 130.539C310.161 130.211 309.963 129.956 309.698 129.773C309.438 129.591 309.113 129.5 308.721 129.5C308.329 129.5 307.996 129.593 307.723 129.78C307.449 129.963 307.24 130.209 307.094 130.519C306.952 130.824 306.882 131.166 306.882 131.544L306.882 132.378C306.882 132.861 306.964 133.269 307.128 133.602C307.292 133.934 307.522 134.185 307.818 134.354C308.115 134.522 308.459 134.606 308.851 134.606C309.11 134.606 309.345 134.57 309.555 134.497C309.769 134.42 309.953 134.308 310.108 134.162C310.263 134.012 310.38 133.829 310.457 133.615L312.091 133.95C311.968 134.36 311.758 134.72 311.462 135.03C311.166 135.336 310.794 135.575 310.348 135.748C309.906 135.917 309.4 136.001 308.83 136.001ZM315.516 131.366L315.516 135.844H313.738L313.738 128.201H315.42L315.447 130.088H315.304C315.518 129.427 315.832 128.933 316.247 128.604C316.662 128.272 317.181 128.105 317.806 128.105C318.33 128.105 318.788 128.217 319.18 128.44C319.572 128.664 319.875 128.99 320.089 129.418C320.308 129.846 320.417 130.368 320.417 130.983L320.417 135.844H318.64L318.64 131.257C318.64 130.746 318.507 130.345 318.243 130.054C317.979 129.762 317.614 129.616 317.149 129.616C316.835 129.616 316.555 129.685 316.309 129.821C316.062 129.958 315.869 130.159 315.728 130.423C315.586 130.683 315.516 130.997 315.516 131.366ZM325.845 128.201L325.845 129.596H321.504L321.504 128.201H325.845ZM322.591 126.383H324.368L324.368 133.69C324.368 133.968 324.427 134.174 324.546 134.306C324.664 134.433 324.858 134.497 325.127 134.497C325.209 134.497 325.316 134.488 325.448 134.47C325.585 134.447 325.694 134.426 325.776 134.408L326.057 135.782C325.861 135.841 325.66 135.882 325.455 135.905C325.25 135.933 325.054 135.946 324.867 135.946C324.133 135.946 323.571 135.764 323.179 135.399C322.787 135.035 322.591 134.515 322.591 133.841L322.591 126.383Z" fill="#52525B"/>
<path d="M245.707 111.257L321.641 111.257L321.641 112.439L245.707 112.439L245.707 111.257ZM241.031 131.257H326.31L326.31 132.439H241.031L241.031 131.257Z" fill="#52525B"/>
<path d="M224.807 191.719L224.807 189.962H234.08L234.08 191.719H230.486L230.486 201.602H228.408L228.408 191.719H224.807ZM238.268 201.782C237.398 201.782 236.645 201.597 236.01 201.227C235.38 200.858 234.895 200.339 234.557 199.673C234.218 199.001 234.049 198.214 234.049 197.313C234.049 196.423 234.215 195.639 234.549 194.962C234.887 194.285 235.364 193.756 235.979 193.376C236.593 192.996 237.312 192.805 238.135 192.805C238.676 192.805 239.187 192.894 239.666 193.071C240.15 193.243 240.577 193.511 240.947 193.876C241.317 194.235 241.606 194.691 241.814 195.243C242.028 195.795 242.135 196.449 242.135 197.204L242.135 197.821H234.986L234.986 196.446H241.119L240.182 196.852C240.182 196.363 240.104 195.933 239.947 195.563C239.791 195.193 239.562 194.907 239.26 194.704C238.963 194.496 238.593 194.391 238.15 194.391C237.708 194.391 237.33 194.496 237.018 194.704C236.705 194.912 236.465 195.193 236.299 195.548C236.137 195.897 236.057 196.287 236.057 196.719L236.057 197.665C236.057 198.206 236.148 198.667 236.33 199.048C236.518 199.423 236.778 199.706 237.111 199.899C237.45 200.092 237.843 200.188 238.291 200.188C238.593 200.188 238.867 200.147 239.111 200.063C239.356 199.975 239.564 199.847 239.736 199.68C239.913 199.509 240.046 199.3 240.135 199.055L242.002 199.399C241.867 199.873 241.627 200.29 241.283 200.649C240.945 201.003 240.52 201.282 240.01 201.485C239.499 201.683 238.919 201.782 238.268 201.782ZM247.135 201.782C246.463 201.782 245.867 201.686 245.346 201.493C244.83 201.295 244.408 201.011 244.08 200.641C243.752 200.266 243.541 199.811 243.447 199.274L245.354 198.962C245.463 199.389 245.669 199.709 245.971 199.923C246.273 200.131 246.671 200.235 247.166 200.235C247.666 200.235 248.059 200.136 248.346 199.938C248.637 199.735 248.783 199.488 248.783 199.196C248.783 198.946 248.687 198.74 248.494 198.579C248.301 198.412 248.007 198.287 247.611 198.204L246.135 197.884C245.312 197.706 244.697 197.417 244.291 197.016C243.885 196.61 243.682 196.087 243.682 195.446C243.682 194.91 243.827 194.443 244.119 194.048C244.416 193.652 244.827 193.347 245.354 193.134C245.88 192.915 246.489 192.805 247.182 192.805C247.843 192.805 248.413 192.902 248.893 193.094C249.372 193.282 249.757 193.55 250.049 193.899C250.346 194.243 250.546 194.647 250.65 195.11L248.838 195.43C248.749 195.118 248.572 194.855 248.307 194.641C248.046 194.428 247.682 194.321 247.213 194.321C246.781 194.321 246.421 194.415 246.135 194.602C245.854 194.79 245.713 195.032 245.713 195.329C245.713 195.584 245.807 195.795 245.994 195.962C246.187 196.123 246.499 196.251 246.932 196.344L248.416 196.657C249.244 196.834 249.859 197.118 250.26 197.509C250.661 197.894 250.861 198.394 250.861 199.009C250.861 199.555 250.702 200.037 250.385 200.454C250.067 200.871 249.627 201.196 249.064 201.43C248.507 201.665 247.864 201.782 247.135 201.782ZM256.643 192.923L256.643 194.509H251.674L251.674 192.923H256.643ZM252.932 190.821H254.955L254.955 199.157C254.955 199.469 255.023 199.699 255.158 199.844C255.294 199.985 255.518 200.055 255.83 200.055C255.924 200.055 256.046 200.045 256.197 200.024C256.354 200.003 256.479 199.985 256.572 199.969L256.861 201.54C256.648 201.602 256.424 201.644 256.189 201.665C255.96 201.691 255.736 201.704 255.518 201.704C254.684 201.704 254.044 201.501 253.596 201.094C253.153 200.688 252.932 200.102 252.932 199.337L252.932 190.821Z" fill="#EEEEF0"/>
<path d="M66.4248 201.759C65.3988 201.759 64.4821 201.522 63.6748 201.048C62.8727 200.574 62.2399 199.891 61.7764 199.001C61.3128 198.105 61.0811 197.035 61.0811 195.79C61.0811 194.535 61.3128 193.462 61.7764 192.571C62.2399 191.675 62.8753 190.99 63.6826 190.516C64.4899 190.042 65.404 189.805 66.4248 189.805C67.0602 189.805 67.6566 189.897 68.2139 190.079C68.7712 190.256 69.266 190.519 69.6982 190.868C70.1357 191.217 70.4951 191.641 70.7764 192.141C71.0576 192.641 71.2451 193.212 71.3389 193.852H69.2373C69.1696 193.503 69.0524 193.193 68.8857 192.923C68.7243 192.652 68.5186 192.423 68.2686 192.235C68.0238 192.048 67.7477 191.907 67.4404 191.813C67.1331 191.719 66.805 191.673 66.4561 191.673C65.8102 191.673 65.2399 191.834 64.7451 192.157C64.2503 192.475 63.8649 192.941 63.5889 193.555C63.3128 194.17 63.1748 194.915 63.1748 195.79C63.1748 196.67 63.3128 197.417 63.5889 198.032C63.8701 198.641 64.2581 199.105 64.7529 199.423C65.2477 199.735 65.8128 199.891 66.4482 199.891C66.7972 199.891 67.1253 199.844 67.4326 199.751C67.7399 199.652 68.016 199.511 68.2607 199.329C68.5107 199.141 68.7191 198.912 68.8857 198.641C69.0576 198.371 69.1774 198.063 69.2451 197.719H71.3467C71.2686 198.282 71.0941 198.808 70.8232 199.298C70.5576 199.787 70.2113 200.217 69.7842 200.587C69.3571 200.956 68.8597 201.246 68.292 201.454C67.7295 201.657 67.1071 201.759 66.4248 201.759ZM76.9014 201.782C76.0576 201.782 75.3232 201.594 74.6982 201.219C74.0732 200.844 73.5889 200.321 73.2451 199.649C72.9066 198.977 72.7373 198.196 72.7373 197.305C72.7373 196.404 72.9066 195.618 73.2451 194.946C73.5889 194.269 74.0732 193.743 74.6982 193.368C75.3232 192.993 76.0576 192.805 76.9014 192.805C77.7451 192.805 78.4795 192.993 79.1045 193.368C79.7295 193.743 80.2113 194.269 80.5498 194.946C80.8936 195.618 81.0654 196.404 81.0654 197.305C81.0654 198.196 80.8936 198.977 80.5498 199.649C80.2113 200.321 79.7295 200.844 79.1045 201.219C78.4795 201.594 77.7451 201.782 76.9014 201.782ZM76.9014 200.134C77.3701 200.134 77.7607 200.009 78.0732 199.759C78.3857 199.503 78.6201 199.162 78.7764 198.735C78.9326 198.308 79.0107 197.829 79.0107 197.298C79.0107 196.761 78.9326 196.279 78.7764 195.852C78.6201 195.42 78.3857 195.079 78.0732 194.829C77.7607 194.579 77.3701 194.454 76.9014 194.454C76.4326 194.454 76.042 194.579 75.7295 194.829C75.4222 195.079 75.1904 195.417 75.0342 195.844C74.8779 196.272 74.7998 196.756 74.7998 197.298C74.7998 197.829 74.8779 198.308 75.0342 198.735C75.1904 199.162 75.4222 199.503 75.7295 199.759C76.042 200.009 76.4326 200.134 76.9014 200.134ZM86.0107 201.766C85.318 201.766 84.6982 201.589 84.1514 201.235C83.6097 200.876 83.1826 200.363 82.8701 199.696C82.5628 199.029 82.4092 198.222 82.4092 197.274C82.4092 196.321 82.568 195.511 82.8857 194.844C83.2035 194.178 83.6331 193.673 84.1748 193.329C84.7165 192.98 85.3258 192.805 86.0029 192.805C86.5029 192.805 86.917 192.889 87.2451 193.055C87.5732 193.217 87.8363 193.417 88.0342 193.657C88.2373 193.891 88.3936 194.118 88.5029 194.337H88.5811L88.5811 189.962H90.6045L90.6045 201.602H88.6201L88.6201 200.235H88.5029C88.3936 200.454 88.2347 200.683 88.0264 200.923C87.8232 201.157 87.5576 201.358 87.2295 201.524C86.9066 201.686 86.5003 201.766 86.0107 201.766ZM86.5498 200.094C86.9925 200.094 87.3675 199.977 87.6748 199.743C87.9873 199.503 88.2243 199.173 88.3857 198.751C88.5472 198.324 88.6279 197.829 88.6279 197.266C88.6279 196.704 88.5472 196.214 88.3857 195.798C88.2243 195.376 87.9873 195.05 87.6748 194.821C87.3675 194.587 86.9925 194.469 86.5498 194.469C86.0967 194.469 85.7165 194.589 85.4092 194.829C85.1019 195.068 84.8701 195.399 84.7139 195.821C84.5576 196.243 84.4795 196.725 84.4795 197.266C84.4795 197.813 84.5576 198.3 84.7139 198.727C84.8753 199.154 85.1097 199.49 85.417 199.735C85.7295 199.975 86.1071 200.094 86.5498 200.094ZM96.5498 201.782C95.68 201.782 94.9274 201.597 94.292 201.227C93.6618 200.858 93.1774 200.339 92.8389 199.673C92.5003 199.001 92.3311 198.214 92.3311 197.313C92.3311 196.423 92.4977 195.639 92.8311 194.962C93.1696 194.285 93.6462 193.756 94.2607 193.376C94.8753 192.996 95.5941 192.805 96.417 192.805C96.9587 192.805 97.4691 192.894 97.9482 193.071C98.4326 193.243 98.8597 193.511 99.2295 193.876C99.5993 194.235 99.8883 194.691 100.097 195.243C100.31 195.795 100.417 196.449 100.417 197.204L100.417 197.821H93.2686L93.2686 196.446H99.4014L98.4639 196.852C98.4639 196.363 98.3857 195.933 98.2295 195.563C98.0732 195.193 97.8441 194.907 97.542 194.704C97.2451 194.496 96.8753 194.391 96.4326 194.391C95.9899 194.391 95.6123 194.496 95.2998 194.704C94.9873 194.912 94.7477 195.193 94.5811 195.548C94.4196 195.897 94.3389 196.287 94.3389 196.719L94.3389 197.665C94.3389 198.206 94.43 198.667 94.6123 199.048C94.7998 199.423 95.0602 199.706 95.3936 199.899C95.7321 200.092 96.1253 200.188 96.5732 200.188C96.8753 200.188 97.1488 200.147 97.3936 200.063C97.6383 199.975 97.8467 199.847 98.0186 199.68C98.1956 199.509 98.3285 199.3 98.417 199.055L100.284 199.399C100.149 199.873 99.9092 200.29 99.5654 200.649C99.2269 201.003 98.8024 201.282 98.292 201.485C97.7816 201.683 97.2008 201.782 96.5498 201.782Z" fill="#EEEEF0"/>
<g filter="url(#filter2_dd_4187_124098)">
<rect x="106" y="137.602" width="108" height="116" rx="8" fill="#091842"/>
<rect x="107" y="138.602" width="106" height="114" rx="7" stroke="#1E40AF" stroke-width="2"/>
</g>
<path d="M156.997 195.412C156.801 195.217 156.801 194.9 156.997 194.705L167.07 184.665C167.266 184.47 167.584 184.47 167.78 184.665L177.853 194.705C178.049 194.9 178.049 195.217 177.853 195.412L167.78 205.452C167.584 205.648 167.266 205.648 167.071 205.452L156.997 195.412Z" fill="#EEEEF0"/>
<path d="M160.912 177.749C160.716 177.553 160.399 177.553 160.203 177.749L143.147 194.749C142.951 194.944 142.951 195.261 143.147 195.456L160.203 212.456C160.399 212.651 160.716 212.651 160.912 212.456L163.724 209.654C163.919 209.458 163.919 209.142 163.724 208.947L150.123 195.391C149.927 195.195 149.927 194.879 150.123 194.684L163.658 181.193C163.854 180.997 163.854 180.681 163.658 180.486L160.912 177.749Z" fill="#EEEEF0"/>
<defs>
<filter id="filter0_dd_4187_124098" x="112" y="47.6023" width="241" height="296" filterUnits="userSpaceOnUse" color-interpolation-filters="sRGB">
<feFlood flood-opacity="0" result="BackgroundImageFix"/>
<feColorMatrix in="SourceAlpha" type="matrix" values="0 0 0 0 0 0 0 0 0 0 0 0 0 0 0 0 0 0 127 0" result="hardAlpha"/>
<feOffset dy="26"/>
<feGaussianBlur stdDeviation="40"/>
<feColorMatrix type="matrix" values="0 0 0 0 0.145098 0 0 0 0 0.388235 0 0 0 0 0.921569 0 0 0 0.15 0"/>
<feBlend mode="normal" in2="BackgroundImageFix" result="effect1_dropShadow_4187_124098"/>
<feColorMatrix in="SourceAlpha" type="matrix" values="0 0 0 0 0 0 0 0 0 0 0 0 0 0 0 0 0 0 127 0" result="hardAlpha"/>
<feOffset dy="-26"/>
<feGaussianBlur stdDeviation="40"/>
<feColorMatrix type="matrix" values="0 0 0 0 0.145098 0 0 0 0 0.388235 0 0 0 0 0.921569 0 0 0 0.15 0"/>
<feBlend mode="normal" in2="effect1_dropShadow_4187_124098" result="effect2_dropShadow_4187_124098"/>
<feBlend mode="normal" in="SourceGraphic" in2="effect2_dropShadow_4187_124098" result="shape"/>
</filter>
<filter id="filter1_dd_4187_124098" x="-33" y="47.6023" width="241" height="296" filterUnits="userSpaceOnUse" color-interpolation-filters="sRGB">
<feFlood flood-opacity="0" result="BackgroundImageFix"/>
<feColorMatrix in="SourceAlpha" type="matrix" values="0 0 0 0 0 0 0 0 0 0 0 0 0 0 0 0 0 0 127 0" result="hardAlpha"/>
<feOffset dy="26"/>
<feGaussianBlur stdDeviation="40"/>
<feColorMatrix type="matrix" values="0 0 0 0 0.145098 0 0 0 0 0.388235 0 0 0 0 0.921569 0 0 0 0.15 0"/>
<feBlend mode="normal" in2="BackgroundImageFix" result="effect1_dropShadow_4187_124098"/>
<feColorMatrix in="SourceAlpha" type="matrix" values="0 0 0 0 0 0 0 0 0 0 0 0 0 0 0 0 0 0 127 0" result="hardAlpha"/>
<feOffset dy="-26"/>
<feGaussianBlur stdDeviation="40"/>
<feColorMatrix type="matrix" values="0 0 0 0 0.145098 0 0 0 0 0.388235 0 0 0 0 0.921569 0 0 0 0.15 0"/>
<feBlend mode="normal" in2="effect1_dropShadow_4187_124098" result="effect2_dropShadow_4187_124098"/>
<feBlend mode="normal" in="SourceGraphic" in2="effect2_dropShadow_4187_124098" result="shape"/>
</filter>
<filter id="filter2_dd_4187_124098" x="26" y="31.6023" width="268" height="328" filterUnits="userSpaceOnUse" color-interpolation-filters="sRGB">
<feFlood flood-opacity="0" result="BackgroundImageFix"/>
<feColorMatrix in="SourceAlpha" type="matrix" values="0 0 0 0 0 0 0 0 0 0 0 0 0 0 0 0 0 0 127 0" result="hardAlpha"/>
<feOffset dy="26"/>
<feGaussianBlur stdDeviation="40"/>
<feColorMatrix type="matrix" values="0 0 0 0 0.145098 0 0 0 0 0.388235 0 0 0 0 0.921569 0 0 0 0.05 0"/>
<feBlend mode="normal" in2="BackgroundImageFix" result="effect1_dropShadow_4187_124098"/>
<feColorMatrix in="SourceAlpha" type="matrix" values="0 0 0 0 0 0 0 0 0 0 0 0 0 0 0 0 0 0 127 0" result="hardAlpha"/>
<feOffset dy="-26"/>
<feGaussianBlur stdDeviation="40"/>
<feColorMatrix type="matrix" values="0 0 0 0 0.145098 0 0 0 0 0.388235 0 0 0 0 0.921569 0 0 0 0.05 0"/>
<feBlend mode="normal" in2="effect1_dropShadow_4187_124098" result="effect2_dropShadow_4187_124098"/>
<feBlend mode="normal" in="SourceGraphic" in2="effect2_dropShadow_4187_124098" result="shape"/>
</filter>
<linearGradient id="paint0_linear_4187_124098" x1="23.8254" y1="217.712" x2="23.8254" y2="265.801" gradientUnits="userSpaceOnUse">
<stop stop-color="#18181B"/>
<stop offset="1" stop-color="#18181B" stop-opacity="0"/>
</linearGradient>
<linearGradient id="paint1_linear_4187_124098" x1="284.38" y1="217.712" x2="284.38" y2="257.872" gradientUnits="userSpaceOnUse">
<stop stop-color="#18181B"/>
<stop offset="1" stop-color="#18181B" stop-opacity="0"/>
</linearGradient>
<linearGradient id="paint2_linear_4187_124098" x1="160.004" y1="23.4462" x2="160.004" y2="122.234" gradientUnits="userSpaceOnUse">
<stop stop-color="#18181B" stop-opacity="0"/>
<stop offset="0.5" stop-color="#18181B"/>
</linearGradient>
<linearGradient id="paint3_linear_4187_124098" x1="160.052" y1="265.014" x2="160.052" y2="326.676" gradientUnits="userSpaceOnUse">
<stop stop-color="#18181B"/>
<stop offset="1" stop-color="#18181B" stop-opacity="0"/>
</linearGradient>
<linearGradient id="paint4_linear_4187_124098" x1="3.52967e-07" y1="42" x2="122.896" y2="57.1757" gradientUnits="userSpaceOnUse">
<stop offset="0.28" stop-color="#2563EB"/>
<stop offset="1" stop-color="#1E3A8A"/>
</linearGradient>
<linearGradient id="paint5_linear_4187_124098" x1="47" y1="195.602" x2="169.896" y2="210.778" gradientUnits="userSpaceOnUse">
<stop offset="0.28" stop-color="#2563EB"/>
<stop offset="1" stop-color="#1E3A8A"/>
</linearGradient>
</defs>
</svg>
